    <svg id='pentagram' width="510" height="550" xmlns="http://www.w3.org/2000/svg" xmlns:svg="http://www.w3.org/2000/svg">
     <!-- Created with SVG-edit - http://svg-edit.googlecode.com/ -->
     <defs>
      <radialGradient id="svg_12" spreadMethod="pad" cx="0.495361" cy="0.492188" r="0.5">
       <stop stop-color="#e9ed04" stop-opacity="0.996094" offset="0"/>
       <stop stop-color="#ff8300" offset="1"/>
       <stop stop-color="0" stop-opacity="0" offset="1"/>
      </radialGradient>
      <radialGradient id="svg_18" spreadMethod="pad" cx="0.495361" cy="0.613281" r="0.5">
       <stop stop-color="#ffff00" offset="0.085205"/>
       <stop stop-color="#e83617" stop-opacity="0.988281" offset="1"/>
      </radialGradient>
     </defs>
     <g>
      <title>Layer 1</title>
      <circle id="svg_1" r="195.685974" cy="283.333332" cx="256.333332" stroke-width="5" stroke="#000000" fill="#000000"/>
      <polygon class='poly' transform="rotate(-36.52143096923828 243.33334350585943,264.1607360839844) " stroke-width="5" stroke="#000000" points="243.33333206176758,63.610782623291016 295.46342849731445,213.58240127563477 454.2039985656738,216.8172950744629 327.6815986633301,312.7397346496582 373.6585884094238,464.7106513977051 243.33333206176758,374.0223579406738 113.00809097290039,464.7106513977051 158.98506546020508,312.7397346496582 32.4626579284668,216.8172950744629 191.2032356262207,213.58240127563477 243.33333206176758,63.610782623291016 295.46342849731445,213.58240127563477 " fill="#FF0000" id="svg_3"/>
      <polygon id="svg_2" fill="#000000" points="256.3333320617676,187.97856521606445 278.2823677062988,251.12309646606445 345.1189765930176,252.48512649536133 291.84758377075195,292.87260818481445 311.2058906555176,356.8589057922363 256.3333320617676,318.6752510070801 201.46078872680664,356.8589057922363 220.8190803527832,292.87260818481445 167.54767227172852,252.48512649536133 234.38432693481445,251.12309646606445 256.3333320617676,187.97856521606445 278.2823677062988,251.12309646606445 " stroke="#000000" stroke-width="5"/>
      <path fill="#b7a1a1" stroke-width="5" stroke-dasharray="null" stroke-linejoin="null" stroke-linecap="null" d="m267.833322,478.300722c0,6.87288 -6.26801,12.44444 -14,12.44444m14,-12.44444l0,0c0,6.87288 -6.26801,12.44444 -14,12.44444c-7.73199,0 -14,-5.57155 -14,-12.44444m0,0l0,0c0,-6.87287 6.26801,-12.44444 14,-12.44444c7.73199,0 14,5.57157 14,12.44444l0,49.7778c0,6.87287 -6.26801,12.44442 -14,12.44442c-7.73199,0 -14,-5.57155 -14,-12.44442l0,-49.7778z" stroke="#d1bcbc" id="svg_32"/>
      <line fill="none" stroke-width="5" stroke-dasharray="null" stroke-linejoin="null" stroke-linecap="null" x1="254.068317" y1="483.172947" x2="254.068317" y2="476.172947" stroke="#070707" id="svg_33"/>
      <path fill="url(#svg_12)" stroke="url(#svg_18)" stroke-width="5" stroke-dasharray="null" stroke-linejoin="null" stroke-linecap="null" d="m254.068312,480.172942c-17,0 -4,-23 -1,-24c3,-1 18,24 1,24z" id="svg_34"/>
      <path fill="#b7a1a1" stroke-width="5" stroke-dasharray="null" stroke-linejoin="null" stroke-linecap="null" d="m35.000001,312.967393c0,6.87288 -6.26801,12.44444 -14,12.44444m14,-12.44444l0,0c0,6.87288 -6.26801,12.44444 -14,12.44444c-7.73199,0 -14,-5.57155 -14,-12.44444m0,0l0,0c0,-6.87287 6.26801,-12.44444 14,-12.44444c7.73199,0 14,5.57157 14,12.44444l0,49.7778c0,6.87287 -6.26801,12.44442 -14,12.44442c-7.73199,0 -14,-5.57155 -14,-12.44442l0,-49.7778z" stroke="#d1bcbc" id="svg_38"/>
      <line fill="none" stroke-width="5" stroke-dasharray="null" stroke-linejoin="null" stroke-linecap="null" x1="21.234996" y1="317.839619" x2="21.234996" y2="310.839619" stroke="#070707" id="svg_39"/>
      <path fill="url(#svg_12)" stroke="url(#svg_18)" stroke-width="5" stroke-dasharray="null" stroke-linejoin="null" stroke-linecap="null" d="m21.234991,314.839613c-17,0 -4,-23 -1,-24c3,-1 18,24 1,24z" id="svg_40"/>
      <path fill="#b7a1a1" stroke-width="5" stroke-dasharray="null" stroke-linejoin="null" stroke-linecap="null" d="m123.000001,32.967393c0,6.87288 -6.26801,12.44444 -14,12.44444m14,-12.44444l0,0c0,6.87288 -6.26801,12.44444 -14,12.44444c-7.73199,0 -14,-5.57155 -14,-12.44444m0,0l0,0c0,-6.87287 6.26801,-12.44444 14,-12.44444c7.73199,0 14,5.57157 14,12.44444l0,49.7778c0,6.87287 -6.26801,12.44442 -14,12.44442c-7.73199,0 -14,-5.57155 -14,-12.44442l0,-49.7778z" stroke="#d1bcbc" id="svg_41"/>
      <line fill="none" stroke-width="5" stroke-dasharray="null" stroke-linejoin="null" stroke-linecap="null" x1="109.234996" y1="37.839619" x2="109.234996" y2="30.839619" stroke="#070707" id="svg_42"/>
      <path fill="url(#svg_12)" stroke="url(#svg_18)" stroke-width="5" stroke-dasharray="null" stroke-linejoin="null" stroke-linecap="null" d="m109.234991,34.839613c-17,0 -4,-23 -1,-24c3,-1 18,24 1,24z" id="svg_43"/>
      <path fill="#b7a1a1" stroke-width="5" stroke-dasharray="null" stroke-linejoin="null" stroke-linecap="null" d="m414.000001,30.967393c0,6.87288 -6.26801,12.44444 -14,12.44444m14,-12.44444l0,0c0,6.87288 -6.26801,12.44444 -14,12.44444c-7.73199,0 -14,-5.57155 -14,-12.44444m0,0l0,0c0,-6.87287 6.26801,-12.44444 14,-12.44444c7.73199,0 14,5.57157 14,12.44444l0,49.7778c0,6.87287 -6.26801,12.44442 -14,12.44442c-7.73199,0 -14,-5.57155 -14,-12.44442l0,-49.7778z" stroke="#d1bcbc" id="svg_44"/>
      <line fill="none" stroke-width="5" stroke-dasharray="null" stroke-linejoin="null" stroke-linecap="null" x1="400.234996" y1="35.839619" x2="400.234996" y2="28.839619" stroke="#070707" id="svg_45"/>
      <path fill="url(#svg_12)" stroke="url(#svg_18)" stroke-width="5" stroke-dasharray="null" stroke-linejoin="null" stroke-linecap="null" d="m400.234991,32.839613c-17,0 -4,-23 -1,-24c3,-1 18,24 1,24z" id="svg_46"/>
      <path fill="#b7a1a1" stroke-width="5" stroke-dasharray="null" stroke-linejoin="null" stroke-linecap="null" d="m506.000001,306.967393c0,6.87288 -6.26801,12.44444 -14,12.44444m14,-12.44444l0,0c0,6.87288 -6.26801,12.44444 -14,12.44444c-7.73199,0 -14,-5.57155 -14,-12.44444m0,0l0,0c0,-6.87287 6.26801,-12.44444 14,-12.44444c7.73199,0 14,5.57157 14,12.44444l0,49.7778c0,6.87287 -6.26801,12.44442 -14,12.44442c-7.73199,0 -14,-5.57155 -14,-12.44442l0,-49.7778z" stroke="#d1bcbc" id="svg_47"/>
      <line fill="none" stroke-width="5" stroke-dasharray="null" stroke-linejoin="null" stroke-linecap="null" x1="492.234996" y1="311.839619" x2="492.234996" y2="304.839619" stroke="#070707" id="svg_48"/>
      <path fill="url(#svg_12)" stroke="url(#svg_18)" stroke-width="5" stroke-dasharray="null" stroke-linejoin="null" stroke-linecap="null" d="m492.234991,308.839613c-17,0 -4,-23 -1,-24c3,-1 18,24 1,24z" id="svg_49"/>
      <path stroke="#000000" transform="rotate(-108.7960205078125 252.44949340820318,282.63827514648443) " id="svg_4" d="m214.040024,273.960549l38.409418,-28.081417l38.409508,28.081417l-14.67106,45.436879l-47.476762,0l-14.671104,-45.436879z" stroke-linecap="null" stroke-linejoin="null" stroke-dasharray="null" fill="#ff0000"/>
     </g>
    </svg>
